<svg width="32" height="32" viewBox="0 0 32 32" fill="none" xmlns="http://www.w3.org/2000/svg">
  <path d="M27.32 26.55L31.58 22.25V31.81C31.58 31.81 29.87 29.47 27.32 26.55Z" fill="currentColor"/>
  <path d="M17.49 17.48L31.58 22.25L27.32 26.55C24.63 23.46 21.01 19.74 17.49 17.48Z" fill="currentColor"/>
  <path d="M17.49 17.48C21.01 19.74 24.63 23.46 27.32 26.55L22.15 31.77C22.15 26.62 20.52 21.61 17.49 17.48Z" fill="currentColor"/>
  <path d="M22.15 31.77L27.32 26.55C29.87 29.47 31.58 31.81 31.58 31.81H22.17L22.15 31.77Z" fill="currentColor"/>
  <path d="M31.58 0.74V10.3L26.87 5.52L31.58 0.74Z" fill="currentColor"/>
  <path d="M31.58 10.3H22.17L26.87 5.52L31.58 10.3Z" fill="currentColor"/>
  <path d="M26.87 5.52L22.17 10.3V0.74L26.87 5.52Z" fill="currentColor"/>
  <path d="M10.4 22.25L5.7 27.03L0.99 22.25H10.4Z" fill="currentColor"/>
  <path d="M10.4 22.25V31.81L5.7 27.03L10.4 22.25Z" fill="currentColor"/>
  <path d="M10.4 31.81H0.99L5.7 27.03L10.4 31.81Z" fill="currentColor"/>
  <path d="M5.7 27.03L0.99 31.81V22.25L5.7 27.03Z" fill="currentColor"/>
  <path d="M5.25 6L0.99 10.3V0.74C0.99 0.74 2.7 3.09 5.25 6Z" fill="currentColor"/>
  <path d="M15.08 15.07L0.99 10.3L5.25 6C7.94 9.09 11.56 12.81 15.08 15.07Z" fill="currentColor"/>
  <path d="M15.08 15.07C11.56 12.81 7.94 9.09 5.25 6L10.42 0.78C10.42 5.93 12.06 10.94 15.08 15.07Z" fill="currentColor"/>
  <path d="M31.58 0.74L26.87 5.52L22.17 0.74H31.58Z" fill="currentColor"/>
  <path d="M10.42 0.78L5.25 6C2.7 3.09 0.99 0.74 0.99 0.74H10.4L10.42 0.78Z" fill="currentColor"/>
</svg>
