<svg width="131" height="32" viewBox="0 0 131 32" fill="none" xmlns="http://www.w3.org/2000/svg">
<path d="M26.332 25.8098L30.5896 21.5127V31.0749C30.5896 31.0749 28.8776 28.7278 26.332 25.8098Z" fill="#A4CC2D"/>
<path d="M16.5 16.7412L30.5895 21.5129L26.3319 25.81C23.6406 22.7233 20.0163 18.9999 16.5 16.7412Z" fill="#D1CEE6"/>
<path d="M16.5 16.7412C20.0163 18.9999 23.6406 22.7233 26.3319 25.81L21.1616 31.0282C21.1598 25.8807 19.5252 20.8707 16.5 16.7412Z" fill="#5998DD"/>
<path d="M21.1621 31.0278L26.3324 25.8096C28.878 28.7276 30.59 31.0747 30.59 31.0747H21.1773L21.1621 31.0278Z" fill="#010F0E"/>
<path d="M30.5898 0V9.56216L25.8848 4.78242L30.5898 0Z" fill="#2A9C4F"/>
<path d="M30.5898 9.56197H21.1797L25.8847 4.78223L30.5898 9.56197Z" fill="#010F0E"/>
<path d="M25.8847 4.78242L21.1797 9.56216V0L25.8847 4.78242Z" fill="#A4CC2D"/>
<path d="M9.41275 21.5129L4.7077 26.2954L0 21.5129H9.41275Z" fill="#C0E8DB"/>
<path d="M9.41209 21.5129V31.0751L4.70703 26.2954L9.41209 21.5129Z" fill="#D26728"/>
<path d="M9.41275 31.0749H0L4.7077 26.2952L9.41275 31.0749Z" fill="#010F0E"/>
<path d="M4.7077 26.2954L0 31.0751V21.5129L4.7077 26.2954Z" fill="#2A9C4F"/>
<path d="M4.25762 5.26508L0 9.56216V0C0 0 1.71333 2.34703 4.25762 5.26508Z" fill="#D26728"/>
<path d="M14.0895 14.3344L0 9.56197L4.25762 5.26489C6.94886 8.35231 10.5732 12.075 14.0895 14.3344Z" fill="#010F0E"/>
<path d="M14.0897 14.3346C10.5734 12.0752 6.94905 8.35252 4.25781 5.2651L9.42811 0.046875C9.43017 5.19459 11.0648 10.2046 14.0897 14.3346Z" fill="#5998DD"/>
<path d="M30.5898 0L25.8847 4.78242L21.1797 0H30.5898Z" fill="#C0E8DB"/>
<path d="M9.42791 0.0468602L4.25762 5.26843C1.71333 2.34703 0 0 0 0H9.41276L9.42791 0.0468602Z" fill="#D1CEE6"/>
<path d="M65.0449 8.82812V9.5404V10.4963V28.6828H68.2805V10.4963V8.82812H65.0449Z" fill="black"/>
<path d="M114.898 14.3075V28.6748H111.664V22.7263L111.66 17.342C111.66 17.5525 111.619 17.7609 111.54 17.9554C111.461 18.1499 111.345 18.3267 111.199 18.4756C111.052 18.6245 110.878 18.7426 110.687 18.8232C110.496 18.9038 110.291 18.9453 110.083 18.9453H106.837C104.957 18.9453 102.924 19.9776 102.924 22.7283C102.924 24.6884 104.425 26.2763 106.837 26.2763C109.249 26.2763 111.664 24.6877 111.664 22.7283C111.664 27.9867 108.623 29.1361 106.611 29.1361C102.817 29.1361 99.6914 26.4583 99.6914 22.7283C99.6914 18.7739 102.926 16.3158 106.839 16.3158H109.715C110.802 16.3158 111.649 15.4455 111.662 14.3075C111.662 14.4286 111.662 14.5451 111.658 14.6583L111.662 14.6415V14.3068C111.662 14.2479 111.662 14.1897 111.658 14.1308C111.546 12.3045 109.97 11.6853 107.753 11.6853C106.197 11.6853 104.823 12.342 104.255 13.6836H100.876C102.144 9.54916 105.514 8.82617 107.753 8.82617C111.15 8.82684 114.898 10.5239 114.898 14.3075Z" fill="black"/>
<path d="M65.0449 2.38794V5.81342H68.2805V4.99136V4.10102V2.38794H65.0449Z" fill="black"/>
<path d="M61.6622 10.1224H58.4029C58.3746 9.93429 58.3469 9.75756 58.3205 9.58083C57.9831 7.27062 56.7186 5.71754 54.5327 5.02467C53.8553 4.80757 53.1507 4.6899 52.4405 4.67523C51.2847 4.65381 50.1433 4.91823 49.0376 5.44976C47.8705 6.01075 47.0297 6.90645 46.6811 8.20314C46.3173 9.55472 46.6383 10.7182 47.6735 11.6581C48.4801 12.3904 49.4461 12.8108 50.4847 13.0639C52.0392 13.4428 53.5977 13.8056 55.1568 14.1658C56.9136 14.5721 58.5643 15.2101 59.9818 16.3749C62.8879 18.7607 63.3089 22.8235 60.9459 25.765C59.6938 27.3208 58.0747 28.3182 56.1907 28.8625C53.2807 29.7019 50.3984 29.5855 47.6353 28.3062C44.8248 27.0041 43.0937 24.7749 42.4953 21.6788C42.4222 21.3026 42.4004 20.9157 42.3635 20.5334C42.3589 20.4278 42.3616 20.322 42.3714 20.2168H45.6162C45.659 20.5401 45.6821 20.8567 45.744 21.1633C46.1704 23.1951 47.2946 24.7234 49.1496 25.5769C51.5878 26.6969 54.0557 26.6393 56.4563 25.4156C57.5475 24.8586 58.4022 24.0265 58.8095 22.8202C59.2655 21.4679 59.0131 20.2455 58.049 19.1952C57.4465 18.5435 56.6887 18.0609 55.8487 17.7941C54.8787 17.4761 53.8837 17.2324 52.8932 16.9821C51.5015 16.6306 50.0952 16.3367 48.712 15.9558C47.4086 15.597 46.2205 14.9771 45.2195 14.0366C42.8551 11.8107 42.5177 8.19243 44.4287 5.49729C45.433 4.08345 46.7734 3.09604 48.3681 2.4882C51.3282 1.3582 54.2988 1.34548 57.1627 2.75597C59.9218 4.11224 61.3847 6.44588 61.6615 9.54066C61.6793 9.71739 61.6622 9.89948 61.6622 10.1224Z" fill="black"/>
<path d="M97.291 2.38794V28.6819H94.0515V3.69132C92.9747 6.11935 87.1817 28.6819 87.1817 28.6819H81.6529C81.6529 28.6819 75.854 6.12203 74.7785 3.69132V28.6819H71.543V2.38794H77.6622L84.414 27.0558L91.1678 2.38794H97.291Z" fill="black"/>
<path d="M123.364 5.96652V11.8977H121.462V10.6927C121.304 11.1693 120.717 12.0443 119.451 12.0845C117.523 12.146 116.52 10.7242 116.52 9.43953C116.52 7.80746 117.855 6.7926 119.47 6.7926H120.657C121.136 6.7926 121.48 6.51077 121.459 6.15865C121.422 5.55616 120.932 5.24621 120.129 5.24621C119.602 5.24621 119.1 5.57356 118.931 5.97455H117.026C117.378 4.31369 118.786 3.69849 120.129 3.69849C121.534 3.70384 123.364 4.40541 123.364 5.96652ZM121.462 8.04511C121.184 8.15242 120.889 8.20753 120.591 8.20778H119.783C119.284 8.20778 118.51 8.3584 118.421 9.18716C118.349 9.86262 118.897 10.4731 119.783 10.4731C120.623 10.4731 121.462 9.86262 121.462 9.17979V8.04511Z" fill="black"/>
<path d="M126.523 3.91113H124.621V11.9135H126.523V3.91113Z" fill="black"/>
<path d="M126.523 1.02148H124.621V2.95346H126.523V1.02148Z" fill="black"/>
<path d="M127.615 10.4209H128.807V10.6679H128.346V11.9164H128.075V10.6679H127.613L127.615 10.4209ZM130.527 10.4209V11.9164H130.252V10.919L129.94 11.9164H129.652L129.34 10.919V11.9164H129.065V10.4236H129.421L129.794 11.6346L130.168 10.4236L130.527 10.4209Z" fill="black"/>
</svg>
